<svg width="495" height="75" viewBox="0 0 495 75" fill="none" xmlns="http://www.w3.org/2000/svg">
<g clip-path="url(#clip0_12712_61228)">
<path d="M152.921 50.4067C152.921 53.3416 150.525 55.7108 147.556 55.7108C145.249 55.6754 143.228 54.1726 142.53 51.9979L141.35 48.5502H124.609L123.375 51.9802C122.319 54.7207 119.225 56.0997 116.453 55.0566C114.468 54.314 113.126 52.4929 113.001 50.4067C113.001 49.8055 113.126 49.2044 113.377 48.6386L124.215 20.1556C125.592 16.5311 129.08 14.1443 132.997 14.1443C136.842 14.1443 140.294 16.5135 141.636 20.0849L152.546 48.5679C152.761 49.1514 152.886 49.7702 152.921 50.4067ZM138.398 39.7985L133.033 23.8862L127.667 39.7985H138.398Z" fill="white"/>
<path d="M156.713 16.7256C156.713 13.7907 159.11 11.4215 162.079 11.4215C165.048 11.4215 167.444 13.7907 167.444 16.7256C167.444 19.6605 165.048 22.0297 162.079 22.0297C159.11 22.0297 156.713 19.6605 156.713 16.7256ZM157.357 51.0255V30.0566C157.375 27.4929 159.485 25.4067 162.079 25.389C164.69 25.389 166.8 27.4576 166.818 30.0389C166.818 30.0389 166.818 30.0389 166.818 30.0566V51.0255C166.818 53.5891 164.708 55.6754 162.114 55.6931C159.503 55.6931 157.375 53.6068 157.357 51.0255Z" fill="white"/>
<path d="M193.129 29.3318C193.307 31.7363 191.465 33.8226 189.033 33.9994C187.244 34.2292 184.365 34.9011 183.148 36.5984V51.0255C183.148 53.6069 181.038 55.6931 178.427 55.6931C175.815 55.6931 173.705 53.6069 173.705 51.0255V30.1804C173.633 27.5814 175.69 25.4244 178.319 25.336C178.355 25.336 178.391 25.336 178.427 25.336C180.877 25.2476 182.952 27.051 183.202 29.4555C184.15 27.9527 185.456 26.6974 187.012 25.8134C187.674 25.4951 188.407 25.3006 189.158 25.2653C191.322 25.2476 193.111 26.9626 193.129 29.1196C193.129 29.1903 193.129 29.261 193.129 29.3318Z" fill="white"/>
<path d="M221.619 51.0255L217.327 37.0227L213.034 51.0255C212.194 53.7836 209.636 55.6754 206.721 55.6931C203.805 55.6578 201.266 53.766 200.407 51.0255L194.398 31.2058C194.326 30.7638 194.29 30.3218 194.272 29.8798C194.272 27.3692 196.365 25.336 198.923 25.3536C201.015 25.3536 202.84 26.7858 203.358 28.7836L207.329 43.8119L212.122 29.1549C212.802 26.8742 214.93 25.3183 217.327 25.336C219.795 25.2476 222.013 26.8211 222.693 29.1549L227.468 43.8119L231.456 28.7836C232.047 26.3437 234.515 24.8232 236.983 25.4067C239.094 25.9017 240.56 27.7935 240.524 29.9329C240.524 30.3572 240.453 30.7992 240.328 31.2058L234.264 51.0255C233.209 54.4908 229.525 56.4534 226.037 55.4279C223.909 54.7914 222.228 53.1471 221.584 51.0255H221.619Z" fill="white"/>
<path d="M271.824 36.8459V50.778C271.896 53.4123 269.803 55.6047 267.138 55.6931C267.138 55.6931 267.12 55.6931 267.103 55.6931C264.903 55.6931 262.971 54.2433 262.327 52.157C259.948 54.6146 256.622 55.9406 253.188 55.7992C247.786 56.0114 243.243 51.8565 243.011 46.517C243.011 46.3932 243.011 46.2695 243.011 46.1634C243.011 39.0913 248.663 36.9519 253.188 36.9519C256.604 36.7221 259.966 37.9597 262.381 40.3466V36.7221C262.381 34.1761 260.181 32.4788 256.371 32.4788C254.243 32.4788 252.168 33.0269 250.308 34.0524C248.627 34.9364 246.516 34.2999 245.622 32.6203C244.728 30.9583 245.372 28.872 247.071 28.0057C250.415 26.1139 254.189 25.1415 258.035 25.1415C265.117 25.1415 271.824 27.7582 271.824 36.8459ZM262.381 47.6309V45.0142C261.021 43.5998 259.09 42.8572 257.122 42.9633C254.601 42.9633 252.401 44.0594 252.401 46.3579C252.401 48.6563 254.601 49.7525 257.122 49.7525C259.108 49.8763 261.039 49.0807 262.363 47.6309H262.381Z" fill="white"/>
<path d="M281.054 58.8401H281.483C283.504 58.7164 284.792 58.3628 285.346 57.2136L286.026 55.64L276.332 31.7715C276.081 31.2058 275.938 30.6223 275.902 30.0035C275.885 27.4929 277.941 25.4243 280.481 25.4066C280.481 25.4066 280.481 25.4066 280.499 25.4066C282.413 25.3359 284.166 26.5028 284.792 28.3062L290.926 45.0318L296.864 28.2885C297.508 26.5028 299.243 25.3359 301.157 25.3889C303.697 25.3713 305.789 27.3868 305.807 29.9151C305.807 29.9328 305.807 29.9682 305.807 29.9858C305.753 30.587 305.61 31.1881 305.378 31.7539L294.164 59.3706C292.464 64.1443 287.814 67.256 282.699 67.0615H281.966C279.551 67.1853 277.494 65.3288 277.369 62.942C277.369 62.8889 277.369 62.8182 277.369 62.7652C277.333 60.6966 278.961 58.9462 281.054 58.8401Z" fill="white"/>
<path d="M351.523 51.9271V37.4999H330.257V51.9271C330.257 53.8719 328.647 55.4632 326.68 55.4632C324.712 55.4632 323.103 53.8719 323.103 51.9271V17.9455C323.103 16.0007 324.712 14.4094 326.68 14.4094C328.647 14.4094 330.257 16.0007 330.257 17.9455V31.2765H351.523V17.9455C351.523 16.0007 353.132 14.4094 355.1 14.4094C357.067 14.4094 358.677 16.0007 358.677 17.9455V51.9271C358.677 53.8719 357.067 55.4632 355.1 55.4632C353.132 55.4632 351.523 53.8719 351.523 51.9271Z" fill="white"/>
<path d="M380.39 25.1414C388.295 24.9823 394.823 31.1881 394.984 39.0028C394.984 39.215 394.984 39.4271 394.984 39.6216C394.984 41.5134 393.625 42.5919 391.175 42.5919H372.127C372.538 47.3656 376.723 50.937 381.552 50.6542C383.931 50.6188 386.256 49.9469 388.295 48.7093C388.725 48.4618 389.207 48.338 389.708 48.3557C391.121 48.3557 392.266 49.5049 392.284 50.9017C392.284 51.7503 391.837 52.5459 391.121 53.0233C388.081 54.9328 384.539 55.9229 380.926 55.8699C372.717 56.2235 365.777 49.9293 365.42 41.814C365.402 41.372 365.402 40.9123 365.42 40.4703C365.116 32.302 371.572 25.442 379.835 25.1591C380.014 25.1591 380.193 25.1591 380.39 25.1591V25.1414ZM371.984 38.1188H388.653C388.635 33.8048 385.076 30.3218 380.712 30.3394C380.587 30.3394 380.461 30.3394 380.318 30.3394C375.865 30.251 372.163 33.6987 371.984 38.1011V38.1188Z" fill="white"/>
<path d="M425.872 35.7496V52.2984C425.872 54.0488 424.424 55.4809 422.653 55.4809C420.882 55.4809 419.434 54.0488 419.434 52.2984V51.9802C416.965 54.5792 413.478 55.9936 409.865 55.8698C404.446 56.1174 399.831 51.9625 399.599 46.6053C399.599 46.4639 399.599 46.3225 399.599 46.1633C399.599 39.4448 404.964 36.6513 409.883 36.6513C413.478 36.4568 416.983 37.8359 419.452 40.4172V36.0502C419.452 32.6555 416.626 30.6046 412.53 30.6046C410.044 30.5869 407.629 31.3472 405.608 32.7793C405.161 33.0622 404.642 33.2036 404.124 33.2036C402.711 33.2036 401.566 32.0544 401.548 30.6577C401.566 29.8444 401.977 29.0841 402.657 28.6068C405.805 26.2729 409.632 25.0353 413.567 25.0707C420.131 25.1414 425.89 27.8819 425.89 35.7496H425.872ZM419.434 48.4795V44.0594C417.699 42.0084 415.088 40.8769 412.387 41.0184C408.81 41.0184 406.073 43.087 406.073 46.3225C406.073 49.558 408.774 51.5382 412.387 51.5382C415.088 51.6619 417.699 50.5304 419.434 48.4795Z" fill="white"/>
<path d="M434.207 52.2984V17.5742C434.207 15.8238 435.656 14.3917 437.426 14.3917C439.197 14.3917 440.646 15.8238 440.646 17.5742V52.2984C440.646 54.0487 439.197 55.4808 437.426 55.4808C435.656 55.4808 434.207 54.0487 434.207 52.2984Z" fill="white"/>
<path d="M463.808 52.7227C463.843 53.8366 463.11 54.8267 462.019 55.1449C460.66 55.6576 459.229 55.9052 457.78 55.8698C452.826 55.8698 450.179 53.2001 450.179 48.3557V31.4532H447.729C446.173 31.3295 445.01 29.9858 445.135 28.4476C445.243 27.0862 446.351 25.99 447.729 25.8839H450.179V20.7213C450.179 18.9709 451.628 17.5388 453.398 17.5388C455.169 17.5388 456.618 18.9709 456.618 20.7213V25.8839H460.195C461.751 25.7602 463.11 26.9094 463.235 28.4476C463.361 29.9858 462.198 31.3295 460.642 31.4532C460.499 31.4532 460.338 31.4532 460.195 31.4532H456.618V46.7821C456.618 48.78 457.601 50.2298 459.444 50.2298C460.177 50.2298 460.553 50.053 461.035 50.053C462.448 49.9469 463.7 50.99 463.808 52.3868C463.808 52.4929 463.808 52.5989 463.808 52.7227Z" fill="white"/>
<path d="M488.562 52.2984V36.722C488.562 32.1782 486.165 30.7814 482.552 30.7814C479.547 30.8875 476.757 32.3373 474.951 34.7241V52.2984C475.076 54.0488 473.752 55.5869 471.982 55.7107C470.211 55.8345 468.655 54.5261 468.53 52.7758C468.53 52.6166 468.53 52.4575 468.53 52.2984V17.5742C468.404 15.8239 469.728 14.2857 471.499 14.1619C473.269 14.0381 474.825 15.3465 474.951 17.0968C474.951 17.256 474.951 17.4151 474.951 17.5742V29.9505C477.598 26.9625 481.407 25.2475 485.432 25.2121C491.817 25.2121 495 28.483 495 34.4943V52.2984C495 54.0488 493.552 55.4809 491.781 55.4809C490.01 55.4809 488.562 54.0488 488.562 52.2984Z" fill="white"/>
<path d="M21.2303 42.4328V30.4279H36.8444C39.6345 30.4279 41.906 28.1825 41.906 25.4243V9.98939H56.2144V14.3388C59.3981 12.4293 62.7784 10.8734 66.3198 9.70651V5.00354C66.3376 2.2454 64.0841 0 61.2939 0C61.2939 0 61.2939 0 61.276 0H36.8444C34.0543 0 31.7828 2.2454 31.7828 5.00354V20.4385H16.1687C13.3786 20.4385 11.125 22.6662 11.125 25.4243V41.814C14.4517 42.4151 17.85 42.6273 21.2303 42.4328Z" fill="white"/>
<path d="M76.8726 30.6754V44.5722H61.2764C58.5042 44.5722 56.2506 46.7645 56.2148 49.505V64.9399H41.9064V59.9187C38.7049 61.6514 35.3067 62.9774 31.7832 63.8791V70.0142C31.7832 72.7723 34.0547 75 36.8448 75H61.2764C64.0666 75 66.3202 72.7723 66.3202 70.0142V54.5792H81.9521C84.7423 54.5792 87.0137 52.3161 86.9958 49.558C86.9958 49.5403 86.9958 49.5227 86.9958 49.505V29.8091C83.5976 29.6853 80.1993 29.9682 76.8726 30.6754Z" fill="white"/>
<path d="M18.7084 58.9639C13.7183 58.9108 8.74616 58.3274 3.89918 57.1958C1.18058 56.5594 -0.500659 53.8719 0.14322 51.1845C0.769213 48.5325 3.45204 46.8705 6.13487 47.4363C17.7247 50.0353 27.204 49.2927 34.3225 45.2263C39.3125 42.4328 41.9059 38.7376 44.9465 34.4943C48.4342 29.0487 52.9771 24.3635 58.3249 20.6859C67.4644 14.71 78.9469 12.3762 92.4326 13.6315C95.2227 13.8083 97.3332 16.1775 97.1543 18.9356C96.9755 21.6937 94.5788 23.78 91.7887 23.6032C91.6814 23.6032 91.5562 23.5855 91.4489 23.5678C80.3241 22.4893 71.0594 24.3281 63.9051 29.0134C59.6126 32.0014 55.964 35.8203 53.1738 40.2404C49.7577 45.0141 46.2342 49.9646 39.3483 53.8896C33.0347 57.355 25.9163 59.0876 18.7084 58.9462V58.9639Z" fill="white"/>
</g>
<defs>
<clipPath id="clip0_12712_61228">
<rect width="495" height="75" fill="white"/>
</clipPath>
</defs>
</svg>
