<svg width="17" height="12" viewBox="0 0 17 12" fill="none" xmlns="http://www.w3.org/2000/svg">
<path d="M10.4688 10.7812C10.3125 10.6562 10.25 10.4688 10.25 10.25C10.25 10.0625 10.3125 9.875 10.4688 9.75L13.4375 6.75H0.75C0.3125 6.75 0 6.4375 0 6C0 5.59375 0.3125 5.25 0.75 5.25H13.4375L10.4688 2.28125C10.1562 2 10.1562 1.53125 10.4688 1.25C10.75 0.9375 11.2188 0.9375 11.5312 1.25L15.7812 5.5C16.0625 5.78125 16.0625 6.25 15.7812 6.53125L11.5312 10.7812C11.2188 11.0938 10.75 11.0938 10.4688 10.7812Z" fill="#455262"/>
</svg>
