<svg width="23" height="17" viewBox="0 0 23 17" fill="none" xmlns="http://www.w3.org/2000/svg">
<path d="M20.735 0C21.8969 0 22.88 0.973958 22.88 2.125C22.88 2.83333 22.5225 3.45312 21.9862 3.85156L12.2891 11.0677C11.7528 11.4661 11.0825 11.4661 10.5462 11.0677L0.849063 3.85156C0.312813 3.45312 0 2.83333 0 2.125C0 0.973958 0.938437 0 2.145 0H20.735ZM9.69719 12.2188C10.725 12.9714 12.1103 12.9714 13.1381 12.2188L22.88 4.95833V14.1667C22.88 15.7604 21.5841 17 20.02 17H2.86C1.25125 17 0 15.7604 0 14.1667V4.95833L9.69719 12.2188Z" fill="#EEEFEF"/>
</svg>
