<svg width="25" height="24" viewBox="0 0 25 24" fill="none" xmlns="http://www.w3.org/2000/svg">
<path d="M2.23214 18.1349H5.7286L5.067 21.5757L5.06688 21.5756L5.06566 21.5832C4.94321 22.3457 5.43219 23.1266 6.25149 23.2473L6.26962 23.25H6.28795H6.28855H6.28915H6.28975H6.29034H6.29094H6.29154H6.29213H6.29272H6.29331H6.29391H6.29449H6.29508H6.29567H6.29626H6.29684H6.29743H6.29801H6.29859H6.29917H6.29975H6.30033H6.30091H6.30148H6.30206H6.30263H6.30321H6.30378H6.30435H6.30492H6.30549H6.30606H6.30662H6.30719H6.30775H6.30832H6.30888H6.30944H6.31H6.31056H6.31112H6.31168H6.31224H6.31279H6.31335H6.3139H6.31445H6.315H6.31556H6.31611H6.31666H6.3172H6.31775H6.3183H6.31884H6.31939H6.31993H6.32047H6.32101H6.32155H6.32209H6.32263H6.32317H6.32371H6.32424H6.32478H6.32531H6.32585H6.32638H6.32691H6.32744H6.32797H6.3285H6.32903H6.32956H6.33009H6.33061H6.33114H6.33166H6.33219H6.33271H6.33323H6.33375H6.33427H6.33479H6.33531H6.33583H6.33635H6.33686H6.33738H6.33789H6.33841H6.33892H6.33943H6.33994H6.34046H6.34097H6.34148H6.34198H6.34249H6.343H6.34351H6.34401H6.34452H6.34502H6.34553H6.34603H6.34653H6.34703H6.34753H6.34804H6.34854H6.34903H6.34953H6.35003H6.35053H6.35102H6.35152H6.35202H6.35251H6.353H6.3535H6.35399H6.35448H6.35497H6.35546H6.35596H6.35644H6.35693H6.35742H6.35791H6.3584H6.35888H6.35937H6.35986H6.36034H6.36083H6.36131H6.36179H6.36228H6.36276H6.36324H6.36372H6.3642H6.36468H6.36516H6.36564H6.36612H6.3666H6.36708H6.36755H6.36803H6.36851H6.36898H6.36946H6.36993H6.37041H6.37088H6.37135H6.37183H6.3723H6.37277H6.37324H6.37372H6.37419H6.37466H6.37513H6.3756H6.37607H6.37653H6.377H6.37747H6.37794H6.37841H6.37887H6.37934H6.37981H6.38027H6.38074H6.3812H6.38167H6.38213H6.38259H6.38306H6.38352H6.38398H6.38445H6.38491H6.38537H6.38583H6.38629H6.38675H6.38722H6.38768H6.38814H6.3886H6.38906H6.38952H6.38997H6.39043H6.39089H6.39135H6.39181H6.39227H6.39272H6.39318H6.39364H6.39409H6.39455H6.39501H6.39546H6.39592H6.39638H6.39683H6.39729H6.39774H6.3982H6.39865H6.39911H6.39956H6.40001H6.40047H6.40092H6.40138H6.40183H6.40228H6.40274H6.40319H6.40364H6.4041H6.40455H6.405H6.40545H6.40591H6.40636H6.40681H6.40726H6.40772H6.40817H6.40862H6.40907H6.40952H6.40998H6.41043H6.41088H6.41133H6.41178H6.41223H6.41268H6.41314H6.41359H6.41404H6.41449H6.41494H6.41539H6.41584H6.4163H6.41675H6.4172H6.41765H6.4181H6.41855H6.419H6.41945H6.41991H6.42036H6.42081H6.42126H6.42171H6.42216H6.42261H6.42307H6.42352H6.42397H6.42442H6.42487H6.42533H6.42578H6.42623H6.42668H6.42713H6.42759H6.42804H6.42849H6.42895H6.4294H6.42985H6.43031H6.43076H6.43121H6.43167H6.43212H6.43257H6.43303H6.43348H6.43394H6.43439H6.43485H6.4353H6.43576H6.43621H6.43667H6.43713H6.43758H6.43804H6.43849H6.43895H6.43941H6.43987H6.44032H6.44078H6.44124H6.4417H6.44216H6.44262H6.44307H6.44353H6.44399H6.44445H6.44491H6.44537H6.44583H6.4463H6.44676H6.44722H6.44768H6.44814H6.44861H6.44907H6.44953H6.45H6.45046H6.45092H6.45139H6.45185H6.45232H6.45278H6.45325H6.45372H6.45418H6.45465H6.45512H6.45559H6.45606H6.45652H6.45699H6.45746H6.45793H6.4584H6.45887H6.45935H6.45982H6.46029H6.46076H6.46124H6.46171H6.46218H6.46266H6.46313H6.46361H6.46408H6.46456H6.46504H6.46551H6.46599H6.46647H6.46695H6.46743H6.46791H6.46839H6.46887H6.46935H6.46983H6.47031H6.4708H6.47128H6.47176H6.47225H6.47273H6.47322H6.47371H6.47419H6.47468H6.47517H6.47566H6.47614H6.47663H6.47713H6.47762H6.47811H6.4786H6.47909H6.47959H6.48008H6.48057H6.48107H6.48157H6.48206H6.48256H6.48306H6.48356H6.48405H6.48455H6.48505H6.48556H6.48606H6.48656H6.48706H6.48757H6.48807H6.48858H6.48908H6.48959H6.4901H6.49061H6.49111H6.49162H6.49213H6.49265H6.49316H6.49367H6.49418H6.4947H6.49521H6.49573H6.49624H6.49676H6.49728H6.4978H6.49832H6.49884H6.49936H6.49988H6.5004H6.50093H6.50145H6.50198H6.5025H6.50303H6.50356H6.50409H6.50461H6.50515H6.50568H6.50621H6.50674H6.50727H6.50781H6.50834H6.50888H6.50942H6.50996H6.51049H6.51103H6.51158H6.51212H6.51266H6.5132H6.51375H6.51429H6.51484H6.51539H6.51593H6.51648H6.51703H6.51758H6.51814H6.51869H6.51924H6.5198H6.52035H6.52091H6.52147H6.52203H6.52259H6.52315H6.52371H6.52427H6.52484H6.5254H6.52597H6.52653H6.5271H6.52767H6.52824H6.52881H6.52938H6.52996H6.53053H6.53111H6.53168H6.53226H6.53284H6.53342H6.534H6.53458H6.53516H6.53575H6.53633H6.53692H6.53751H6.53809H6.53868H6.53928H6.53987H6.54046H6.54105H6.54165H6.54225H6.54284H6.54344H6.54404H6.54464C7.21768 23.25 7.84386 22.7824 7.97107 22.1121L7.97131 22.1108L8.70369 18.1349H13.8956L13.2819 21.572C13.0961 22.3635 13.6681 23.1298 14.4658 23.2473L14.4839 23.25H14.5022H14.5028H14.5034H14.504H14.5046H14.5052H14.5058H14.5064H14.507H14.5076H14.5082H14.5088H14.5094H14.51H14.5105H14.5111H14.5117H14.5123H14.5129H14.5135H14.514H14.5146H14.5152H14.5158H14.5163H14.5169H14.5175H14.5181H14.5186H14.5192H14.5198H14.5203H14.5209H14.5215H14.522H14.5226H14.5232H14.5237H14.5243H14.5248H14.5254H14.526H14.5265H14.5271H14.5276H14.5282H14.5287H14.5293H14.5298H14.5304H14.5309H14.5315H14.532H14.5326H14.5331H14.5337H14.5342H14.5348H14.5353H14.5358H14.5364H14.5369H14.5375H14.538H14.5385H14.5391H14.5396H14.5401H14.5407H14.5412H14.5417H14.5423H14.5428H14.5433H14.5438H14.5444H14.5449H14.5454H14.5459H14.5465H14.547H14.5475H14.548H14.5486H14.5491H14.5496H14.5501H14.5506H14.5511H14.5517H14.5522H14.5527H14.5532H14.5537H14.5542H14.5547H14.5553H14.5558H14.5563H14.5568H14.5573H14.5578H14.5583H14.5588H14.5593H14.5598H14.5603H14.5608H14.5613H14.5618H14.5623H14.5628H14.5633H14.5638H14.5643H14.5648H14.5653H14.5658H14.5663H14.5668H14.5673H14.5678H14.5683H14.5688H14.5693H14.5698H14.5702H14.5707H14.5712H14.5717H14.5722H14.5727H14.5732H14.5737H14.5741H14.5746H14.5751H14.5756H14.5761H14.5766H14.577H14.5775H14.578H14.5785H14.579H14.5794H14.5799H14.5804H14.5809H14.5814H14.5818H14.5823H14.5828H14.5833H14.5837H14.5842H14.5847H14.5852H14.5856H14.5861H14.5866H14.5871H14.5875H14.588H14.5885H14.5889H14.5894H14.5899H14.5904H14.5908H14.5913H14.5918H14.5922H14.5927H14.5932H14.5936H14.5941H14.5946H14.595H14.5955H14.596H14.5964H14.5969H14.5973H14.5978H14.5983H14.5987H14.5992H14.5997H14.6001H14.6006H14.601H14.6015H14.602H14.6024H14.6029H14.6033H14.6038H14.6043H14.6047H14.6052H14.6056H14.6061H14.6066H14.607H14.6075H14.6079H14.6084H14.6088H14.6093H14.6097H14.6102H14.6107H14.6111H14.6116H14.612H14.6125H14.6129H14.6134H14.6138H14.6143H14.6148H14.6152H14.6157H14.6161H14.6166H14.617H14.6175H14.6179H14.6184H14.6188H14.6193H14.6197H14.6202H14.6206H14.6211H14.6215H14.622H14.6225H14.6229H14.6234H14.6238H14.6243H14.6247H14.6252H14.6256H14.6261H14.6265H14.627H14.6274H14.6279H14.6283H14.6288H14.6292H14.6297H14.6301H14.6306H14.631H14.6315H14.6319H14.6324H14.6328H14.6333H14.6337H14.6342H14.6346H14.6351H14.6355H14.636H14.6364H14.6369H14.6374H14.6378H14.6383H14.6387H14.6392H14.6396H14.6401H14.6405H14.641H14.6414H14.6419H14.6423H14.6428H14.6432H14.6437H14.6441H14.6446H14.645H14.6455H14.646H14.6464H14.6469H14.6473H14.6478H14.6482H14.6487H14.6491H14.6496H14.65H14.6505H14.651H14.6514H14.6519H14.6523H14.6528H14.6532H14.6537H14.6542H14.6546H14.6551H14.6555H14.656H14.6564H14.6569H14.6574H14.6578H14.6583H14.6587H14.6592H14.6597H14.6601H14.6606H14.661H14.6615H14.662H14.6624H14.6629H14.6634H14.6638H14.6643H14.6647H14.6652H14.6657H14.6661H14.6666H14.6671H14.6675H14.668H14.6685H14.6689H14.6694H14.6699H14.6703H14.6708H14.6713H14.6717H14.6722H14.6727H14.6732H14.6736H14.6741H14.6746H14.675H14.6755H14.676H14.6765H14.6769H14.6774H14.6779H14.6784H14.6788H14.6793H14.6798H14.6803H14.6808H14.6812H14.6817H14.6822H14.6827H14.6832H14.6836H14.6841H14.6846H14.6851H14.6856H14.686H14.6865H14.687H14.6875H14.688H14.6885H14.689H14.6895H14.6899H14.6904H14.6909H14.6914H14.6919H14.6924H14.6929H14.6934H14.6939H14.6944H14.6949H14.6954H14.6959H14.6963H14.6968H14.6973H14.6978H14.6983H14.6988H14.6993H14.6998H14.7003H14.7008H14.7013H14.7019H14.7024H14.7029H14.7034H14.7039H14.7044H14.7049H14.7054H14.7059H14.7064H14.7069H14.7074H14.708H14.7085H14.709H14.7095H14.71H14.7105H14.711H14.7116H14.7121H14.7126H14.7131H14.7136H14.7142H14.7147H14.7152H14.7157H14.7163H14.7168H14.7173H14.7178H14.7184H14.7189H14.7194H14.72H14.7205H14.721H14.7216H14.7221H14.7226H14.7232H14.7237H14.7242H14.7248H14.7253H14.7259H14.7264H14.7269H14.7275H14.728H14.7286H14.7291H14.7297H14.7302H14.7308H14.7313H14.7319H14.7324H14.733H14.7335H14.7341H14.7346H14.7352H14.7358H14.7363H14.7369H14.7374H14.738H14.7386H14.7391H14.7397H14.7403H14.7408H14.7414H14.742H14.7425H14.7431H14.7437H14.7442H14.7448H14.7454H14.746H14.7465H14.7471H14.7477H14.7483H14.7489H14.7495H14.75H14.7506H14.7512H14.7518H14.7524H14.753H14.7536H14.7542H14.7547H14.7553H14.7559H14.7565H14.7571H14.7577H14.7583H14.7589C15.432 23.25 16.0581 22.7824 16.1854 22.1121L16.1856 22.1108L16.918 18.1349H21.125C21.9059 18.1349 22.6071 17.5545 22.6071 16.7537C22.6071 15.9663 21.9203 15.3233 21.125 15.3233H17.4734L18.7144 8.73851L22.7679 8.69171C22.7684 8.69171 22.7689 8.69171 22.7694 8.69171C23.5497 8.69096 24.25 8.11075 24.25 7.31049C24.25 6.48039 23.5699 5.8309 22.7679 5.8309H19.2208L19.8815 2.43996L19.8817 2.43999L19.883 2.43179C20.0054 1.66928 19.5165 0.888436 18.6972 0.767683C17.9289 0.65445 17.1079 1.10307 16.9769 1.90663L16.2454 5.8309H11.0538L11.6679 2.43666L11.6679 2.43667L11.6687 2.43179C11.7912 1.66928 11.3022 0.888436 10.4829 0.767683C9.71461 0.654451 8.89367 1.10307 8.76262 1.90661L8.03113 5.8309H3.875C3.01483 5.8309 2.39286 6.48722 2.39286 7.31049C2.39286 8.10476 3.03562 8.69171 3.875 8.69171H7.47527L6.23468 15.2741H2.23214C1.37861 15.2741 0.75 15.9238 0.75 16.7045C0.75 17.5412 1.38554 18.1349 2.23214 18.1349ZM15.6896 8.69171L14.449 15.2741H9.25911L10.4997 8.69171H15.6896Z" fill="#EEEFEF" stroke="#EEEFEF" stroke-width="0.5"/>
</svg>
