<svg width="16" height="16" viewBox="0 0 16 16" fill="none" xmlns="http://www.w3.org/2000/svg">
<path d="M8.00156 4.41058C6.01517 4.41058 4.41294 6.01317 4.41294 8C4.41294 9.98683 6.01517 11.5894 8.00156 11.5894C9.98795 11.5894 11.5902 9.98683 11.5902 8C11.5902 6.01317 9.98795 4.41058 8.00156 4.41058ZM8.00156 10.3336C6.7179 10.3336 5.66849 9.28707 5.66849 8C5.66849 6.71293 6.71478 5.66641 8.00156 5.66641C9.28834 5.66641 10.3346 6.71293 10.3346 8C10.3346 9.28707 9.28522 10.3336 8.00156 10.3336ZM12.574 4.26375C12.574 4.72922 12.1992 5.10097 11.737 5.10097C11.2716 5.10097 10.8999 4.7261 10.8999 4.26375C10.8999 3.80141 11.2747 3.42653 11.737 3.42653C12.1992 3.42653 12.574 3.80141 12.574 4.26375ZM14.9508 5.11347C14.8977 3.99197 14.6416 2.99855 13.8202 2.18007C13.0019 1.3616 12.0087 1.10543 10.8875 1.0492C9.73185 0.983599 6.26815 0.983599 5.11255 1.0492C3.99442 1.10231 3.00123 1.35847 2.17981 2.17695C1.35839 2.99543 1.10541 3.98884 1.04919 5.11034C0.983603 6.26621 0.983603 9.73067 1.04919 10.8865C1.10229 12.008 1.35839 13.0015 2.17981 13.8199C3.00123 14.6384 3.9913 14.8946 5.11255 14.9508C6.26815 15.0164 9.73185 15.0164 10.8875 14.9508C12.0087 14.8977 13.0019 14.6415 13.8202 13.8199C14.6385 13.0015 14.8946 12.008 14.9508 10.8865C15.0164 9.73067 15.0164 6.26933 14.9508 5.11347ZM13.4579 12.1267C13.2143 12.739 12.7427 13.2108 12.1274 13.4575C11.206 13.8231 9.01974 13.7387 8.00156 13.7387C6.98338 13.7387 4.79398 13.8199 3.87574 13.4575C3.26358 13.2139 2.79197 12.7422 2.54523 12.1267C2.17981 11.2052 2.26414 9.01841 2.26414 8C2.26414 6.98159 2.18293 4.7917 2.54523 3.87326C2.78885 3.26096 3.26046 2.78924 3.87574 2.54245C4.7971 2.17695 6.98338 2.2613 8.00156 2.2613C9.01974 2.2613 11.2091 2.18007 12.1274 2.54245C12.7395 2.78612 13.2112 3.25784 13.4579 3.87326C13.8233 4.79482 13.739 6.98159 13.739 8C13.739 9.01841 13.8233 11.2083 13.4579 12.1267Z" fill="#455262" stroke="#455262" stroke-width="0.7"/>
</svg>
