<svg width="27" height="27" viewBox="0 0 27 27" fill="none" xmlns="http://www.w3.org/2000/svg">
<path d="M13.4873 7.09032C9.79826 7.09032 6.82269 9.95208 6.82269 13.5C6.82269 17.0479 9.79826 19.9097 13.4873 19.9097C17.1763 19.9097 20.1519 17.0479 20.1519 13.5C20.1519 9.95208 17.1763 7.09032 13.4873 7.09032ZM13.4873 17.6671C11.1033 17.6671 9.15442 15.7983 9.15442 13.5C9.15442 11.2017 11.0975 9.33287 13.4873 9.33287C15.877 9.33287 17.8201 11.2017 17.8201 13.5C17.8201 15.7983 15.8712 17.6671 13.4873 17.6671ZM21.979 6.82813C21.979 7.65932 21.2829 8.32316 20.4245 8.32316C19.5602 8.32316 18.87 7.65374 18.87 6.82813C18.87 6.00251 19.566 5.33309 20.4245 5.33309C21.2829 5.33309 21.979 6.00251 21.979 6.82813ZM26.393 8.34548C26.2944 6.3428 25.8188 4.56884 24.2933 3.10727C22.7736 1.64571 20.9291 1.18827 18.8468 1.08786C16.7007 0.970713 10.2681 0.970713 8.12197 1.08786C6.04545 1.1827 4.20094 1.64013 2.67545 3.1017C1.14996 4.56326 0.680136 6.33722 0.57573 8.3399C0.453923 10.4039 0.453923 16.5905 0.57573 18.6545C0.674336 20.6572 1.14996 22.4312 2.67545 23.8927C4.20094 25.3543 6.03965 25.8117 8.12197 25.9121C10.2681 26.0293 16.7007 26.0293 18.8468 25.9121C20.9291 25.8173 22.7736 25.3599 24.2933 23.8927C25.813 22.4312 26.2886 20.6572 26.393 18.6545C26.5148 16.5905 26.5148 10.4095 26.393 8.34548ZM23.6205 20.8692C23.168 21.9626 22.2922 22.8049 21.1495 23.2456C19.4384 23.8983 15.3782 23.7477 13.4873 23.7477C11.5964 23.7477 7.53033 23.8927 5.82503 23.2456C4.68817 22.8105 3.81232 21.9681 3.35409 20.8692C2.67545 19.2235 2.83206 15.3186 2.83206 13.5C2.83206 11.6814 2.68125 7.77089 3.35409 6.13082C3.80652 5.03743 4.68237 4.19508 5.82503 3.75438C7.53613 3.1017 11.5964 3.25232 13.4873 3.25232C15.3782 3.25232 19.4442 3.10727 21.1495 3.75438C22.2864 4.1895 23.1622 5.03185 23.6205 6.13082C24.2991 7.77647 24.1425 11.6814 24.1425 13.5C24.1425 15.3186 24.2991 19.2291 23.6205 20.8692Z" fill="#EEEFEF" stroke="#EEEFEF" stroke-width="0.7"/>
</svg>
