<svg width="13" height="12" viewBox="0 0 13 12" fill="none" xmlns="http://www.w3.org/2000/svg">
<path d="M2.90991 12H0.214732V3.98821H2.90991V12ZM1.56087 2.89533C0.69904 2.89533 0 2.23639 0 1.44084C6.16861e-09 1.0587 0.164448 0.69222 0.457168 0.422011C0.749888 0.151802 1.1469 0 1.56087 0C1.97484 0 2.37185 0.151802 2.66457 0.422011C2.95729 0.69222 3.12174 1.0587 3.12174 1.44084C3.12174 2.23639 2.42241 2.89533 1.56087 2.89533ZM12.9971 12H10.3077V8.09991C10.3077 7.17043 10.2874 5.97844 8.90645 5.97844C7.50518 5.97844 7.29045 6.98828 7.29045 8.03295V12H4.59817V3.98821H7.18308V5.0811H7.2208C7.58062 4.45162 8.45958 3.78732 9.77089 3.78732C12.4986 3.78732 13 5.44539 13 7.59901V12H12.9971Z" fill="#455262"/>
</svg>
