<svg width="28" height="25" viewBox="0 0 28 25" fill="none" xmlns="http://www.w3.org/2000/svg">
<path d="M6.56824 25H0.962268V8.30878H6.56824V25ZM3.76224 6.03194C1.96963 6.03194 0.515625 4.65914 0.515625 3.00174C0.515625 2.20563 0.857678 1.44213 1.46654 0.87919C2.07539 0.316254 2.90118 0 3.76224 0C4.62329 0 5.44908 0.316254 6.05794 0.87919C6.66679 1.44213 7.00885 2.20563 7.00885 3.00174C7.00885 4.65914 5.55424 6.03194 3.76224 6.03194ZM27.5496 25H21.9557V16.8748C21.9557 14.9384 21.9134 12.4551 19.041 12.4551C16.1264 12.4551 15.6798 14.5589 15.6798 16.7353V25H10.0798V8.30878H15.4564V10.5856H15.5349C16.2833 9.2742 18.1115 7.89024 20.8391 7.89024C26.5127 7.89024 27.5556 11.3446 27.5556 15.8313V25H27.5496Z" fill="#EEEFEF"/>
</svg>
