<svg width="17" height="20" viewBox="0 0 17 20" fill="none" xmlns="http://www.w3.org/2000/svg">
<path d="M9.65156 19.5599C11.7641 17.0171 16.4766 10.9535 16.4766 7.511C16.4766 3.3643 13.0234 0 8.67656 0C4.37031 0 0.876562 3.3643 0.876562 7.511C0.876562 10.9535 5.62969 17.0171 7.74219 19.5599C8.22969 20.1467 9.16406 20.1467 9.65156 19.5599ZM8.67656 10.0147C7.25469 10.0147 6.07656 8.91932 6.07656 7.511C6.07656 6.14181 7.25469 5.00733 8.67656 5.00733C10.1391 5.00733 11.2766 6.14181 11.2766 7.511C11.2766 8.91932 10.1391 10.0147 8.67656 10.0147Z" fill="#EEEFEF"/>
</svg>
