<svg width="366" height="61" viewBox="0 0 366 61" fill="none" xmlns="http://www.w3.org/2000/svg">
<g clip-path="url(#clip0_947_472)">
<path d="M27.79 61C25.9792 61 24.1684 60.5335 22.5563 59.6004L5.23372 49.6C2.0048 47.7339 0 44.2603 0 40.5327V20.4627C0 16.735 2.0048 13.2615 5.23372 11.3954L22.5563 1.39959C25.7852 -0.46653 29.7994 -0.46653 33.0237 1.39959L50.3416 11.4C53.5706 13.2615 55.5753 16.735 55.5753 20.4673V40.5419C55.5753 44.2696 53.5706 47.7431 50.3416 49.6093L33.0237 59.605C31.4115 60.5381 29.6008 61.0046 27.79 61.0046V61ZM27.79 2.61442C26.4319 2.61442 25.0738 2.96547 23.8635 3.66296L6.54561 13.6633C4.12508 15.0629 2.61917 17.6681 2.61917 20.4627V40.5373C2.61917 43.3319 4.12508 45.9371 6.54561 47.3367L23.8635 57.337C26.2841 58.7366 29.2913 58.732 31.7118 57.337L49.0297 47.3413C51.4503 45.9417 52.9562 43.3365 52.9562 40.5419V20.4627C52.9562 17.6681 51.4549 15.0629 49.0297 13.6633L31.7164 3.66758C30.5062 2.97009 29.1481 2.61904 27.79 2.61904V2.61442Z" fill="#D1492E"/>
<path d="M17.5951 39.0869C12.9619 39.0869 10.0887 35.1791 10.0794 31.5624C10.0563 31.3453 10.0979 31.1097 10.1303 30.9249C10.1626 30.754 10.1811 30.6432 10.1903 30.5415C10.2319 30.2367 10.3012 29.8902 10.3936 29.5438C10.5599 28.8648 10.8047 28.195 11.1234 27.5576C11.3267 27.1511 11.5761 26.7492 11.8671 26.3659C12.0057 26.1672 12.1443 26.0009 12.2921 25.8393L12.4307 25.6637C12.6108 25.4374 12.6709 25.382 12.694 25.3681C13.1698 24.9663 13.4654 24.7168 13.7564 24.5043L23.2446 16.638H23.2215C23.7666 16.1946 24.6073 15.4971 25.9561 14.3746L32.4001 8.99337C32.4232 8.98413 32.4463 8.98413 32.4648 8.98413C32.5156 8.98413 32.5479 9.00723 32.571 9.04418C32.5803 9.06266 32.5803 9.09961 32.5572 9.13656L21.2721 26.8231C20.5145 28.0056 20.4684 29.4468 21.1428 30.6801C21.8172 31.9134 23.0598 32.6478 24.4641 32.6478H28.0164L28.5014 32.6386C28.7324 32.6386 28.9772 32.6571 29.1573 32.7957C29.2867 32.8927 29.3745 33.082 29.3514 33.216C29.3098 33.4885 29.1019 33.7749 28.9402 34.0059L25.4619 39.0915H17.609L17.5951 39.0869Z" fill="#D1492E"/>
<path d="M23.1152 52.0343C23.0828 52.0343 23.0366 52.0066 23.0043 51.9604C22.9951 51.9419 22.9951 51.905 23.0228 51.868L34.3078 34.1814C35.0654 32.999 35.1116 31.5532 34.4372 30.3245C33.7628 29.0912 32.5202 28.3567 31.1159 28.3567H27.5636L27.0786 28.366C26.8476 28.366 26.6028 28.3475 26.4226 28.2089C26.2933 28.1119 26.2101 27.9226 26.2286 27.7886C26.2702 27.5161 26.4781 27.2297 26.6397 26.9987L30.1181 21.9131H37.971C42.6042 21.9131 45.4774 25.8209 45.4867 29.4376C45.5051 29.6455 45.4728 29.858 45.4358 30.0751C45.4035 30.246 45.3804 30.3568 45.3758 30.4584C45.3342 30.7633 45.2649 31.1097 45.1725 31.4562C45.0062 32.1352 44.7614 32.805 44.4427 33.4424C44.2394 33.8489 43.99 34.2507 43.699 34.6341C43.5604 34.8327 43.4218 34.999 43.274 35.1607L43.1354 35.3362C42.9553 35.5626 42.8952 35.618 42.8721 35.6319C42.3963 36.0337 42.1007 36.2831 41.8097 36.4956L32.3215 44.362H32.3446C31.8088 44.7962 30.9819 45.4798 29.67 46.5745L23.166 52.0066L23.1059 52.0343H23.1152Z" fill="#D1492E"/>
<path d="M90.6271 28.8925V28.7586C90.6271 27.5807 89.3706 26.6061 87.8508 26.6061H75.5264C74.0067 26.6061 72.7502 27.5807 72.7502 28.7586V28.8925C72.7502 30.0704 74.0067 31.045 75.5264 31.045H86.4604C89.2828 31.045 91.7958 31.9873 93.5326 33.4701C93.662 33.5717 93.7497 33.6733 93.8791 33.7749C95.2233 35.0544 96.0502 36.7034 96.0502 38.4864C96.0502 42.5928 91.7542 45.9232 86.4604 45.9232H76.9584C71.6646 45.9232 67.3687 42.5928 67.3687 38.4864H72.7918C72.7918 40.2694 74.658 41.7152 76.9584 41.7152H86.4604C88.7608 41.7152 90.6686 40.2694 90.6686 38.4864C90.6686 36.7034 88.7608 35.2577 86.4604 35.2577H75.5264C73.3138 35.2577 71.3182 34.5833 69.8446 33.4747C69.452 33.1698 69.1055 32.8373 68.8007 32.4631C67.8906 31.4515 67.3687 30.209 67.3687 28.8602V28.7262C67.3687 25.225 71.0133 22.3657 75.5264 22.3657H87.8508C92.3639 22.3657 96.0502 25.225 96.0502 28.7262V28.8602L90.6271 28.8925Z" fill="#231F20"/>
<path d="M129.462 40.8422L127.508 45.9232L123.517 41.6135L117.484 35.1837L111.497 41.6135L107.506 45.8862L105.552 40.8375L98.4797 22.3611H104.12L109.589 36.5649L114.19 31.6178L115.059 30.6755L117.53 28.0518L120.001 30.6755L120.87 31.6178L125.471 36.5649L130.94 22.3611H136.58L129.466 40.8375L129.462 40.8422Z" fill="#231F20"/>
<path d="M138.931 45.9232V22.3611H144.355V45.9186H138.931V45.9232Z" fill="#231F20"/>
<path d="M172.667 22.3289V26.5369H154.91C153.39 26.5369 152.134 27.5115 152.134 28.6894V30.8788H169.761V35.0868H152.092V45.891H146.71V28.7263C146.71 25.225 150.355 22.3658 154.868 22.3658L172.671 22.3335L172.667 22.3289Z" fill="#231F20"/>
<path d="M204.06 22.3982V26.6062H192.373V45.9603H186.95V26.6062H175.295V22.3982H204.06V22.3982Z" fill="#231F20"/>
<path d="M242.003 41.7477L244.779 45.9557H238.705L235.929 41.7477L233.023 37.341L232.894 37.1378C231.937 35.9276 230.247 35.1192 228.293 35.1192H221.248V45.9557H215.825V22.3982H236.626C238.88 22.3982 240.922 23.1049 242.396 24.2505C243.869 25.4283 244.784 27.0081 244.784 28.7587C244.784 31.3177 242.83 33.5395 240.012 34.5465C239.273 34.8144 238.492 34.9853 237.67 35.0499L242.008 41.7477H242.003ZM236.621 30.9112C237.014 30.9112 237.402 30.8419 237.749 30.708C238.746 30.3708 239.398 29.5994 239.398 28.7541C239.398 27.9781 238.876 27.4423 238.575 27.2067C238.229 26.9388 237.578 26.6016 236.621 26.6016H221.244V30.9435L236.621 30.9112V30.9112Z" fill="#231F20"/>
<path d="M275.761 45.9232H270.116L267.534 41.7152L261.363 31.6178L255.191 41.7152L252.609 45.9232H246.964L249.546 41.7152L261.363 22.3611L273.179 41.7152L275.761 45.9232Z" fill="#231F20"/>
<path d="M281.184 34.1445C281.184 38.3201 285.568 41.7152 290.945 41.7152H304.553V45.9232H290.945C282.57 45.9232 275.756 40.6389 275.756 34.1445C275.756 27.65 282.57 22.3657 290.945 22.3657H304.553V26.5737H290.945C285.563 26.5737 281.184 29.9734 281.184 34.1445Z" fill="#231F20"/>
<path d="M324.754 31.821L337.198 45.9232H330.875L320.934 34.6803L313.663 40.0985V45.9232H308.526V22.3611H313.663V34.4077L317.894 31.2436L321.714 28.3844L329.724 22.3611H337.323L324.754 31.8164V31.821Z" fill="#231F20"/>
<path d="M360.577 28.8925V28.7586C360.577 27.5807 359.32 26.6061 357.801 26.6061H345.476C343.956 26.6061 342.7 27.5807 342.7 28.7586V28.8925C342.7 30.0704 343.956 31.045 345.476 31.045H356.41C359.233 31.045 361.746 31.9873 363.482 33.4701C363.612 33.5717 363.7 33.6733 363.829 33.7749C365.173 35.0544 366 36.7034 366 38.4864C366 42.5928 361.704 45.9232 356.41 45.9232H346.908C341.614 45.9232 337.318 42.5928 337.318 38.4864H342.742C342.742 40.2694 344.608 41.7152 346.908 41.7152H356.41C358.711 41.7152 360.618 40.2694 360.618 38.4864C360.618 36.7034 358.711 35.2577 356.41 35.2577H345.476C343.264 35.2577 341.268 34.5833 339.794 33.4747C339.402 33.1698 339.055 32.8373 338.75 32.4631C337.84 31.4515 337.318 30.209 337.318 28.8602V28.7262C337.318 25.225 340.963 22.3657 345.476 22.3657H357.801C362.314 22.3657 366 25.225 366 28.7262V28.8602L360.577 28.8925Z" fill="#231F20"/>
</g>
<defs>
<clipPath id="clip0_947_472">
<rect width="366" height="61" fill="white"/>
</clipPath>
</defs>
</svg>
