<svg id="Layer_1" data-name="Layer 1" xmlns="http://www.w3.org/2000/svg" width="440.2" height="67" viewBox="0 0 440.2 67">
  <g>
    <g>
      <rect x="260.1" y="2.7" width="177.4" height="57.7" fill="#fff"/>
      <path d="M434.8,5.4V57.7h-172V5.4h172M440.2,0H257.4V63.1H440.2V0Z" fill="#ef7d00"/>
    </g>
    <rect width="262.8" height="63.1" fill="#ef7d00"/>
    <g>
      <path d="M21.4,48.1H24V37.7h0a9.48,9.48,0,0,0,7.7,4,10.45,10.45,0,1,0,0-20.9,9.21,9.21,0,0,0-7.7,4h0V21.3H21.5V48.1ZM39.9,31.3a7.94,7.94,0,0,1-8.1,8.1,8.15,8.15,0,0,1,0-16.3,7.9,7.9,0,0,1,8.1,8.2Z" fill="#fff"/>
      <path d="M64.5,32.2A11,11,0,0,0,63,25.9a10.19,10.19,0,0,0-8.9-5.1,10.45,10.45,0,1,0,9.8,13.9H61.2a7.54,7.54,0,0,1-7.1,4.7,7.9,7.9,0,0,1-7.7-7.2ZM46.4,29.9a7.79,7.79,0,0,1,7.7-6.8,7.89,7.89,0,0,1,7.8,6.8Z" fill="#fff"/>
      <path d="M66.9,41.2h2.5v-11a7.52,7.52,0,0,1,1.8-5.4,6.29,6.29,0,0,1,8.6,0,7.45,7.45,0,0,1,1.9,5.4V41.1h2.5V30.2c0-3.3-1-5.6-2.5-7a8.35,8.35,0,0,0-6.3-2.4,7.13,7.13,0,0,0-6.1,3.1h-.1V21.4H66.7V41.2Z" fill="#fff"/>
      <path d="M87.6,41.2h2.5v-11c0-2.6.8-4.4,1.9-5.4a6.29,6.29,0,0,1,8.6,0,7.45,7.45,0,0,1,1.9,5.4V41.1H105V30.2c0-3.3-1-5.6-2.5-7a8.35,8.35,0,0,0-6.3-2.4,7.13,7.13,0,0,0-6.1,3.1H90V21.4H87.5V41.2Z" fill="#fff"/>
      <polygon points="110.2 48.1 112.9 48.1 124.4 21.3 121.7 21.3 114.9 37.1 108.6 21.3 105.9 21.3 113.7 40.5 110.2 48.1" fill="#fff"/>
      <path d="M145.7,21h-4.4v2.5h-.1a8.55,8.55,0,0,0-6.7-3.2c-5.6,0-10.1,4.5-10.1,10.6,0,6.7,4.6,10.9,9.8,10.9a9.61,9.61,0,0,0,7-3.2v2.5h4.4V21Zm-4.6,10c0,3.7-2.5,6.4-5.9,6.4a6.06,6.06,0,0,1-6-6.2c0-3,2-6.4,6-6.4a5.85,5.85,0,0,1,5.9,6.2Z" fill="#fff"/>
      <path d="M147.6,47.9h4.8V39.3a8,8,0,0,0,6.2,2.6c5.7,0,10.1-4.9,10.1-10.8,0-5-3.5-10.7-10.1-10.7a7.87,7.87,0,0,0-6.5,3.1H152V21h-4.4V47.9Zm4.6-16.8a5.91,5.91,0,1,1,11.8,0,5.91,5.91,0,1,1-11.8,0Z" fill="#fff"/>
      <path d="M170.1,47.9h4.8V39.3a8,8,0,0,0,6.2,2.6c5.7,0,10.1-4.9,10.1-10.8,0-5-3.5-10.7-10.1-10.7a7.87,7.87,0,0,0-6.5,3.1h-.1V21h-4.4V47.9Zm4.6-16.8a5.91,5.91,0,1,1,11.8,0,5.91,5.91,0,1,1-11.8,0Z" fill="#fff"/>
      <path d="M212.8,33.3a14.21,14.21,0,0,0,.3-2.4,10.54,10.54,0,0,0-10.4-10.6,10.73,10.73,0,0,0-10.6,10.9,10.56,10.56,0,0,0,10.6,10.7,10.41,10.41,0,0,0,9.7-7h-5.1a4.88,4.88,0,0,1-4.6,2.6,6,6,0,0,1-5.6-4.1h15.7ZM197,29.4a5.83,5.83,0,0,1,5.7-4.7,5.34,5.34,0,0,1,5.4,4.7Z" fill="#fff"/>
      <path d="M235,21h-4.4v2.5h-.1a8.55,8.55,0,0,0-6.7-3.2c-5.6,0-10.1,4.5-10.1,10.6,0,6.7,4.6,10.9,9.8,10.9a9.61,9.61,0,0,0,7-3.2v2.5h4.4V21Zm-4.6,10c0,3.7-2.5,6.4-5.9,6.4a6.06,6.06,0,0,1-6-6.2c0-3,2-6.4,6-6.4a5.85,5.85,0,0,1,5.9,6.2Z" fill="#fff"/>
      <polygon points="237.2 41.2 242.1 41.2 242.1 14.3 237.2 14.3 237.2 41.2" fill="#fff"/>
    </g>
    <g>
      <path d="M297.7,32.9a11.2,11.2,0,0,1-22.1-2.6A11.18,11.18,0,0,1,297.7,28h-6.3a4.69,4.69,0,0,0-4.5-2.9,4.3,4.3,0,0,0-3.6,1.5,5.56,5.56,0,0,0-1.4,3.8,5,5,0,0,0,5,5.3,4.77,4.77,0,0,0,4.5-2.8Z" fill="#ef7d00"/>
      <path d="M322.3,40.8h-6.2V38.5c-1.1,2-3.7,3-6.2,3-6.6,0-10.5-5.2-10.5-11.2,0-6.8,4.9-11.1,10.5-11.1a7.44,7.44,0,0,1,6.2,2.9V20h6.2ZM305.6,30.5a5.17,5.17,0,0,0,5.2,5.2,5.08,5.08,0,0,0,4.4-2.3,6.18,6.18,0,0,0,.9-2.7,5.16,5.16,0,0,0-5.2-5.6,5.2,5.2,0,0,0-5.3,5.4Z" fill="#ef7d00"/>
      <path d="M326.1,20h5.8v2.2c.7-1,2-2.9,5.8-2.9,7,0,7.7,5.7,7.7,8.5v13h-6.2V29.4c0-2.3-.5-4.3-3.3-4.3-3.1,0-3.6,2.2-3.6,4.4V40.9h-6.2V20Z" fill="#ef7d00"/>
      <path d="M371,40.8h-6.2V38.5c-1.1,2-3.7,3-6.2,3-6.6,0-10.5-5.2-10.5-11.2,0-6.8,4.9-11.1,10.5-11.1a7.44,7.44,0,0,1,6.2,2.9V20H371ZM354.4,30.5a5.17,5.17,0,0,0,5.2,5.2,5.08,5.08,0,0,0,4.4-2.3,6.18,6.18,0,0,0,.9-2.7,5.16,5.16,0,0,0-5.2-5.6,5.14,5.14,0,0,0-5.3,5.4Z" fill="#ef7d00"/>
      <path d="M396.5,40.8h-5.9V38.5c-.6.9-2.1,2.9-6.3,2.9-6.3,0-10.5-4.9-10.5-11.2,0-7.1,5-11.1,10.3-11.1a7.65,7.65,0,0,1,6.1,2.5V13h6.2V40.8ZM380.1,30.3a5.07,5.07,0,0,0,5.2,5.3,5.52,5.52,0,0,0,3.9-1.6,5.28,5.28,0,0,0,1.5-3.9,5.21,5.21,0,0,0-1.5-3.7,5.38,5.38,0,0,0-9.1,3.9Z" fill="#ef7d00"/>
      <path d="M422.2,40.8H416V38.5c-1.1,2-3.7,3-6.2,3-6.6,0-10.5-5.2-10.5-11.2,0-6.8,4.9-11.1,10.5-11.1a7.44,7.44,0,0,1,6.2,2.9V20h6.2ZM405.6,30.5a5.17,5.17,0,0,0,5.2,5.2,5.08,5.08,0,0,0,4.4-2.3,6.18,6.18,0,0,0,.9-2.7,5.16,5.16,0,0,0-5.2-5.6,5.14,5.14,0,0,0-5.3,5.4Z" fill="#ef7d00"/>
    </g>
  </g>
</svg>
