<svg width="76" height="58" viewBox="0 0 76 58" fill="none" xmlns="http://www.w3.org/2000/svg">
<path fill-rule="evenodd" clip-rule="evenodd" d="M63.7473 0.836914L70.1379 10.0131L69.7473 10.3021C62.7696 15.4656 58.0785 20.4495 55.8177 26.7103C56.6294 26.3726 57.6875 26.2002 59.0999 26.2002C68.1937 26.2002 75.4999 32.8427 75.4999 41.7002C75.4999 50.4218 68.1783 57.2002 58.1999 57.2002C46.6239 57.2002 39.6999 48.2237 39.6999 37.8002C39.6999 26.5146 47.1513 10.4533 63.3492 1.06757L63.7473 0.836914ZM24.2915 0.838139L30.8425 10.0096L30.4473 10.3021C23.4483 15.4813 18.75 20.4799 16.4971 26.7675C17.323 26.4632 18.3932 26.3502 19.7999 26.3502C28.8903 26.3502 36.1999 32.8396 36.1999 41.8502C36.1999 50.4249 28.8748 57.2002 18.8999 57.2002C7.3239 57.2002 0.399902 48.2237 0.399902 37.8002C0.399902 26.5154 7.85045 10.4546 23.8975 1.0686L24.2915 0.838139ZM63.4537 2.16518C47.8279 11.4098 40.6999 26.977 40.6999 37.8002C40.6999 47.7767 47.2759 56.2002 58.1999 56.2002C67.7215 56.2002 74.4999 49.7786 74.4999 41.7002C74.4999 33.4576 67.7061 27.2002 59.0999 27.2002C56.9052 27.2002 55.8664 27.6408 55.2535 28.2537L54.4207 27.7575C56.529 20.6796 61.4438 15.2643 68.7627 9.7883L63.4537 2.16518ZM24.0096 2.16393C8.52881 11.4083 1.3999 26.9761 1.3999 37.8002C1.3999 47.7767 7.9759 56.2002 18.8999 56.2002C28.425 56.2002 35.1999 49.7755 35.1999 41.8502C35.1999 33.4608 28.4095 27.3502 19.7999 27.3502C17.5573 27.3502 16.548 27.6592 15.9535 28.2537L15.1207 27.7575C17.2285 20.6811 22.1417 15.2666 29.458 9.79179L24.0096 2.16393Z" fill="#D9412E"/>
</svg>
