<svg width="14" height="11" viewBox="0 0 14 11" fill="none" xmlns="http://www.w3.org/2000/svg">
<path d="M12.5609 2.7414C12.5698 2.8617 12.5698 2.98204 12.5698 3.10234C12.5698 6.77186 9.68279 11 4.40611 11C2.78046 11 1.27031 10.5445 0 9.75392C0.230974 9.77969 0.453033 9.78828 0.692893 9.78828C2.03425 9.78828 3.26904 9.35001 4.25509 8.60236C2.99366 8.57656 1.93655 7.77735 1.57233 6.67734C1.75001 6.70311 1.92766 6.7203 2.11423 6.7203C2.37183 6.7203 2.62947 6.68591 2.8693 6.62579C1.55458 6.36795 0.568506 5.25078 0.568506 3.90156V3.8672C0.950473 4.07345 1.39467 4.20235 1.86545 4.21952C1.09261 3.72107 0.58628 2.8703 0.58628 1.90779C0.58628 1.39218 0.728386 0.919521 0.977133 0.507018C2.38958 2.19139 4.51269 3.29137 6.89339 3.41171C6.84898 3.20546 6.82232 2.99063 6.82232 2.77578C6.82232 1.24608 8.10152 0 9.69162 0C10.5178 0 11.2639 0.335155 11.7881 0.876562C12.4365 0.756255 13.0584 0.524213 13.6091 0.206252C13.3959 0.850797 12.9429 1.3922 12.3477 1.73593C12.9251 1.6758 13.4848 1.52108 14 1.30626C13.6092 1.85624 13.1206 2.34606 12.5609 2.7414Z" fill="#455262"/>
</svg>
