<svg width="37" height="25" viewBox="0 0 37 25" fill="none" xmlns="http://www.w3.org/2000/svg">
<path d="M32.5613 6.23045C32.5837 6.50387 32.5837 6.77735 32.5837 7.05078C32.5837 15.3906 25.2919 25 11.9645 25C7.85858 25 4.04439 23.9648 0.835938 22.168C1.41931 22.2266 1.98017 22.2461 2.58599 22.2461C5.97386 22.2461 9.0926 21.25 11.5831 19.5508C8.39707 19.4922 5.7271 17.6758 4.80718 15.1758C5.25595 15.2343 5.70466 15.2734 6.17587 15.2734C6.82651 15.2734 7.47722 15.1953 8.08297 15.0586C4.76236 14.4726 2.27182 11.9336 2.27182 8.86718V8.78908C3.23656 9.25783 4.35848 9.5508 5.54754 9.58982C3.59555 8.45698 2.31671 6.52341 2.31671 4.33589C2.31671 3.16404 2.67563 2.08982 3.3039 1.15231C6.87133 4.98044 12.2337 7.48039 18.2467 7.75388C18.1345 7.28513 18.0672 6.79689 18.0672 6.3086C18.0672 2.832 21.2981 0 25.3142 0C27.4008 0 29.2854 0.761717 30.6092 1.99219C32.2471 1.71876 33.8176 1.19139 35.2088 0.468753C34.6702 1.93363 33.526 3.1641 32.0227 3.9453C33.4811 3.80864 34.8947 3.457 36.1959 2.96877C35.2089 4.21872 33.9748 5.33196 32.5613 6.23045Z" fill="#EEEFEF"/>
</svg>
